{
  "accessors": [
    {
      "bufferView": 2,
      "componentType": 5126,
      "count": 15974,
      "max": [
        0.3144174814224243,
        0.7767272591590881,
        0.2533271610736847
      ],
      "min": [
        -0.32805198431015015,
        -1.087455153465271,
        -0.01638658158481121
      ],
      "type": "VEC3"
    },
    {
      "bufferView": 2,
      "byteOffset": 191688,
      "componentType": 5126,
      "count": 15974,
      "max": [
        0.999969482421875,
        0.9998912811279297,
        0.9999361634254456
      ],
      "min": [
        -0.9999661445617676,
        -0.9997513890266418,
        -0.999982476234436
      ],
      "type": "VEC3"
    },
    {
      "bufferView": 3,
      "componentType": 5126,
      "count": 15974,
      "max": [
        0.9999664425849915,
        0.9999580979347229,
        0.9999676942825317,
        1.0
      ],
      "min": [
        -0.9999567866325378,
        -0.9999999403953552,
        -0.9997648596763611,
        -1.0
      ],
      "type": "VEC4"
    },
    {
      "bufferView": 1,
      "componentType": 5126,
      "count": 15974,
      "max": [
        0.4962350130081177,
        0.9989280104637146
      ],
      "min": [
        0.0024949999060481787,
        0.5041589736938477
      ],
      "type": "VEC2"
    },
    {
      "bufferView": 1,
      "byteOffset": 127792,
      "componentType": 5126,
      "count": 15974,
      "max": [
        0.0,
        0.0
      ],
      "min": [
        0.0,
        0.0
      ],
      "type": "VEC2"
    },
    {
      "bufferView": 1,
      "byteOffset": 255584,
      "componentType": 5126,
      "count": 15974,
      "max": [
        0.4962350130081177,
        0.9989280104637146
      ],
      "min": [
        0.0024949999060481787,
        0.5041589736938477
      ],
      "type": "VEC2"
    },
    {
      "bufferView": 0,
      "componentType": 5125,
      "count": 86784,
      "type": "SCALAR"
    },
    {
      "bufferView": 2,
      "byteOffset": 383376,
      "componentType": 5126,
      "count": 1089,
      "max": [
        0.3185914158821106,
        0.1717393696308136,
        -0.012480741366744041
      ],
      "min": [
        -0.2596473693847656,
        -0.15916649997234344,
        -0.25617989897727966
      ],
      "type": "VEC3"
    },
    {
      "bufferView": 2,
      "byteOffset": 396444,
      "componentType": 5126,
      "count": 1089,
      "max": [
        0.9979219436645508,
        0.7599515318870544,
        0.999873161315918
      ],
      "min": [
        -0.9998078346252441,
        -0.9325461983680725,
        -0.2940852642059326
      ],
      "type": "VEC3"
    },
    {
      "bufferView": 1,
      "byteOffset": 383376,
      "componentType": 5126,
      "count": 1089,
      "max": [
        1.0,
        1.0
      ],
      "min": [
        0.0,
        0.0
      ],
      "type": "VEC2"
    },
    {
      "bufferView": 0,
      "byteOffset": 347136,
      "componentType": 5125,
      "count": 6144,
      "type": "SCALAR"
    }
  ],
  "asset": {
    "extras": {
      "author": "edouard77 (https://sketchfab.com/edouard77)",
      "license": "CC-BY-4.0 (http://creativecommons.org/licenses/by/4.0/)",
      "source": "https://sketchfab.com/3d-models/patient-00b483f284a542899b94e99831f1ad1c",
      "title": "Patient"
    },
    "generator": "Sketchfab-12.68.0",
    "version": "2.0"
  },
  "bufferViews": [
    {
      "buffer": 0,
      "byteLength": 371712,
      "name": "floatBufferViews",
      "target": 34963
    },
    {
      "buffer": 0,
      "byteLength": 392088,
      "byteOffset": 371712,
      "byteStride": 8,
      "name": "floatBufferViews",
      "target": 34962
    },
    {
      "buffer": 0,
      "byteLength": 409512,
      "byteOffset": 763800,
      "byteStride": 12,
      "name": "floatBufferViews",
      "target": 34962
    },
    {
      "buffer": 0,
      "byteLength": 255584,
      "byteOffset": 1173312,
      "byteStride": 16,
      "name": "floatBufferViews",
      "target": 34962
    }
  ],
  "buffers": [
    {
      "byteLength": 1428896,
      "uri": "scene.bin"
    }
  ],
  "images": [
    {
      "uri": "textures/Patient_baseColor.png"
    },
    {
      "uri": "textures/Patient_metallicRoughness.png"
    },
    {
      "uri": "textures/Patient_normal.png"
    }
  ],
  "materials": [
    {
      "doubleSided": true,
      "name": "Patient",
      "normalTexture": {
        "index": 2
      },
      "pbrMetallicRoughness": {
        "baseColorTexture": {
          "index": 0
        },
        "metallicRoughnessTexture": {
          "index": 1
        }
      }
    },
    {
      "doubleSided": true,
      "name": "Serviette",
      "pbrMetallicRoughness": {
        "baseColorFactor": [
          0.09244000750687026,
          0.3694792826639017,
          0.5259747095201842,
          1.0
        ],
        "metallicFactor": 0.0
      }
    }
  ],
  "meshes": [
    {
      "name": "Body_Patient_0",
      "primitives": [
        {
          "attributes": {
            "NORMAL": 1,
            "POSITION": 0,
            "TANGENT": 2,
            "TEXCOORD_0": 3,
            "TEXCOORD_1": 4,
            "TEXCOORD_2": 5
          },
          "indices": 6,
          "material": 0,
          "mode": 4
        }
      ]
    },
    {
      "name": "Serviette_Serviette_0",
      "primitives": [
        {
          "attributes": {
            "NORMAL": 8,
            "POSITION": 7,
            "TEXCOORD_0": 9
          },
          "indices": 10,
          "material": 1,
          "mode": 4
        }
      ]
    }
  ],
  "nodes": [
    {
      "children": [
        1
      ],
      "matrix": [
        1.0,
        0.0,
        0.0,
        0.0,
        0.0,
        2.220446049250313e-16,
        -1.0,
        0.0,
        0.0,
        1.0,
        2.220446049250313e-16,
        0.0,
        0.0,
        0.0,
        0.0,
        1.0
      ],
      "name": "Sketchfab_model"
    },
    {
      "children": [
        2
      ],
      "matrix": [
        1.0,
        0.0,
        0.0,
        0.0,
        0.0,
        0.0,
        1.0,
        0.0,
        0.0,
        -1.0,
        0.0,
        0.0,
        0.0,
        0.0,
        0.0,
        1.0
      ],
      "name": "1412fa10c80d4bf287683236c388b0bd.fbx"
    },
    {
      "children": [
        3,
        5
      ],
      "name": "RootNode"
    },
    {
      "children": [
        4
      ],
      "matrix": [
        100.0,
        0.0,
        0.0,
        0.0,
        0.0,
        -1.629206793918314e-05,
        -99.99999999999868,
        0.0,
        0.0,
        99.99999999999868,
        -1.629206793918314e-05,
        0.0,
        5.383044481277466e-07,
        1.4901228695407553e-08,
        -4.1350722312927246e-07,
        1.0
      ],
      "name": "Body"
    },
    {
      "mesh": 0,
      "name": "Body_Patient_0"
    },
    {
      "children": [
        6
      ],
      "matrix": [
        100.0,
        0.0,
        0.0,
        0.0,
        -0.0,
        -1.629206793918314e-05,
        -99.99999999999868,
        0.0,
        0.0,
        99.99999999999868,
        -1.629206793918314e-05,
        0.0,
        -0.6405839323997498,
        25.071048736572266,
        13.35145378112793,
        1.0
      ],
      "name": "Serviette"
    },
    {
      "mesh": 1,
      "name": "Serviette_Serviette_0"
    }
  ],
  "samplers": [
    {
      "magFilter": 9729,
      "minFilter": 9987,
      "wrapS": 10497,
      "wrapT": 10497
    }
  ],
  "scene": 0,
  "scenes": [
    {
      "name": "Sketchfab_Scene",
      "nodes": [
        0
      ]
    }
  ],
  "textures": [
    {
      "sampler": 0,
      "source": 0
    },
    {
      "sampler": 0,
      "source": 1
    },
    {
      "sampler": 0,
      "source": 2
    }
  ]
}
