{
  "accessors": [
    {
      "bufferView": 2,
      "componentType": 5126,
      "count": 1012,
      "max": [
        3.3976988792419434,
        3.540682315826416,
        5.932101249694824
      ],
      "min": [
        -1.0000001192092896,
        -1.5319981575012207,
        -3.6026415824890137
      ],
      "type": "VEC3"
    },
    {
      "bufferView": 2,
      "byteOffset": 12144,
      "componentType": 5126,
      "count": 1012,
      "max": [
        1.0,
        1.0,
        1.0
      ],
      "min": [
        -1.0,
        -1.0,
        -1.0
      ],
      "type": "VEC3"
    },
    {
      "bufferView": 1,
      "componentType": 5126,
      "count": 1012,
      "max": [
        1.0001565217971802,
        0.9784822463989258
      ],
      "min": [
        0.0028961768839508295,
        -0.006158232688903809
      ],
      "type": "VEC2"
    },
    {
      "bufferView": 0,
      "componentType": 5125,
      "count": 1680,
      "type": "SCALAR"
    }
  ],
  "asset": {
    "extras": {
      "author": "Wersaus33 (https://sketchfab.com/wersaus33)",
      "license": "CC-BY-4.0 (http://creativecommons.org/licenses/by/4.0/)",
      "source": "https://sketchfab.com/3d-models/blue-sofa-ps1-low-poly-315b8551f71b4677afb1279e5863f1f1",
      "title": "Blue Sofa - PS1 Low Poly"
    },
    "generator": "Sketchfab-15.25.0",
    "version": "2.0"
  },
  "bufferViews": [
    {
      "buffer": 0,
      "byteLength": 6720,
      "name": "floatBufferViews",
      "target": 34963
    },
    {
      "buffer": 0,
      "byteLength": 8096,
      "byteOffset": 6720,
      "byteStride": 8,
      "name": "floatBufferViews",
      "target": 34962
    },
    {
      "buffer": 0,
      "byteLength": 24288,
      "byteOffset": 14816,
      "byteStride": 12,
      "name": "floatBufferViews",
      "target": 34962
    }
  ],
  "buffers": [
    {
      "byteLength": 39104,
      "uri": "scene.bin"
    }
  ],
  "images": [
    {
      "uri": "textures/material_baseColor.png"
    }
  ],
  "materials": [
    {
      "doubleSided": true,
      "name": "material",
      "pbrMetallicRoughness": {
        "baseColorTexture": {
          "index": 0
        },
        "metallicFactor": 0.0,
        "roughnessFactor": 0.8552376540576123
      }
    }
  ],
  "meshes": [
    {
      "name": "Cube.002_Tex_0",
      "primitives": [
        {
          "attributes": {
            "NORMAL": 1,
            "POSITION": 0,
            "TEXCOORD_0": 2
          },
          "indices": 3,
          "material": 0,
          "mode": 4
        }
      ]
    }
  ],
  "nodes": [
    {
      "children": [
        1
      ],
      "matrix": [
        1.0,
        0.0,
        0.0,
        0.0,
        0.0,
        2.220446049250313e-16,
        -1.0,
        0.0,
        0.0,
        1.0,
        2.220446049250313e-16,
        0.0,
        0.0,
        0.0,
        0.0,
        1.0
      ],
      "name": "Sketchfab_model"
    },
    {
      "children": [
        2
      ],
      "matrix": [
        0.009999999776482582,
        0.0,
        0.0,
        0.0,
        0.0,
        0.0,
        0.009999999776482582,
        0.0,
        0.0,
        -0.009999999776482582,
        0.0,
        0.0,
        0.0,
        0.0,
        0.0,
        1.0
      ],
      "name": "f671207f771b4e1d9c5ed4dd8741fd03.fbx"
    },
    {
      "children": [
        3
      ],
      "name": "RootNode"
    },
    {
      "children": [
        4
      ],
      "matrix": [
        22.432423348847394,
        -137.87875868913605,
        -1.7939864452145254e-05,
        0.0,
        -1.866361061535613e-05,
        3.504551269423127e-05,
        -292.6834716796848,
        0.0,
        54.46997621842793,
        8.862087082524235,
        -2.412264824087385e-06,
        0.0,
        4.284358024597168,
        427.6396789550781,
        293.95440673828125,
        1.0
      ],
      "name": "Cube.002"
    },
    {
      "mesh": 0,
      "name": "Cube.002_Tex_0"
    }
  ],
  "samplers": [
    {
      "magFilter": 9728,
      "minFilter": 9728,
      "wrapS": 10497,
      "wrapT": 10497
    }
  ],
  "scene": 0,
  "scenes": [
    {
      "name": "Sketchfab_Scene",
      "nodes": [
        0
      ]
    }
  ],
  "textures": [
    {
      "sampler": 0,
      "source": 0
    }
  ]
}
