{
  "accessors": [
    {
      "bufferView": 2,
      "componentType": 5126,
      "count": 16512,
      "max": [
        237.2548065185547,
        78.5091781616211,
        60.15453338623047
      ],
      "min": [
        8.342267990112305,
        10.702930450439453,
        0.0
      ],
      "type": "VEC3"
    },
    {
      "bufferView": 2,
      "byteOffset": 198144,
      "componentType": 5126,
      "count": 16512,
      "max": [
        1.0,
        1.0,
        1.0
      ],
      "min": [
        -1.0,
        -1.0,
        -1.0
      ],
      "type": "VEC3"
    },
    {
      "bufferView": 1,
      "componentType": 5126,
      "count": 16512,
      "max": [
        70.68216705322266,
        8.400492668151855
      ],
      "min": [
        -70.48091888427734,
        -6.251622200012207
      ],
      "type": "VEC2"
    },
    {
      "bufferView": 0,
      "componentType": 5125,
      "count": 25770,
      "type": "SCALAR"
    },
    {
      "bufferView": 2,
      "byteOffset": 396288,
      "componentType": 5126,
      "count": 484,
      "max": [
        237.2548065185547,
        78.5091781616211,
        57.99924850463867
      ],
      "min": [
        8.342267990112305,
        10.702930450439453,
        0.0
      ],
      "type": "VEC3"
    },
    {
      "bufferView": 2,
      "byteOffset": 402096,
      "componentType": 5126,
      "count": 484,
      "max": [
        1.0,
        1.0,
        1.0
      ],
      "min": [
        -1.0,
        -1.0,
        -1.0
      ],
      "type": "VEC3"
    },
    {
      "bufferView": 1,
      "byteOffset": 132096,
      "componentType": 5126,
      "count": 484,
      "max": [
        3.2952051162719727,
        1.090404987335205
      ],
      "min": [
        -3.2952051162719727,
        -4.409298171026421e-08
      ],
      "type": "VEC2"
    },
    {
      "bufferView": 0,
      "byteOffset": 103080,
      "componentType": 5125,
      "count": 918,
      "type": "SCALAR"
    },
    {
      "bufferView": 2,
      "byteOffset": 407904,
      "componentType": 5126,
      "count": 132,
      "max": [
        165.53089904785156,
        18.27617073059082,
        45.97600173950195
      ],
      "min": [
        82.09963989257813,
        12.405460357666016,
        11.22700023651123
      ],
      "type": "VEC3"
    },
    {
      "bufferView": 0,
      "byteOffset": 106752,
      "componentType": 5125,
      "count": 240,
      "type": "SCALAR"
    },
    {
      "bufferView": 2,
      "byteOffset": 409488,
      "componentType": 5126,
      "count": 164,
      "max": [
        147.1278076171875,
        18.27617073059082,
        45.97600173950195
      ],
      "min": [
        82.09963989257813,
        12.405460357666016,
        11.22700023651123
      ],
      "type": "VEC3"
    },
    {
      "bufferView": 0,
      "byteOffset": 107712,
      "componentType": 5125,
      "count": 320,
      "type": "SCALAR"
    },
    {
      "bufferView": 2,
      "byteOffset": 411456,
      "componentType": 5126,
      "count": 642,
      "max": [
        165.53089904785156,
        30.36941146850586,
        57.16096115112305
      ],
      "min": [
        82.09963989257813,
        12.405460357666016,
        11.22700023651123
      ],
      "type": "VEC3"
    },
    {
      "bufferView": 2,
      "byteOffset": 419160,
      "componentType": 5126,
      "count": 642,
      "max": [
        0.9881590604782104,
        1.0,
        1.0
      ],
      "min": [
        -0.9881590604782104,
        -0.9999375939369202,
        -1.0
      ],
      "type": "VEC3"
    },
    {
      "bufferView": 0,
      "byteOffset": 108992,
      "componentType": 5125,
      "count": 2010,
      "type": "SCALAR"
    },
    {
      "bufferView": 2,
      "byteOffset": 426864,
      "componentType": 5126,
      "count": 2768,
      "max": [
        153.8824920654297,
        33.17969512939453,
        58.72374725341797
      ],
      "min": [
        147.1158905029297,
        27.535295486450195,
        56.27643966674805
      ],
      "type": "VEC3"
    },
    {
      "bufferView": 2,
      "byteOffset": 460080,
      "componentType": 5126,
      "count": 2768,
      "max": [
        0.999867856502533,
        0.9941874146461487,
        0.9999955296516418
      ],
      "min": [
        -0.9983446598052979,
        -0.9793980717658997,
        -0.999699592590332
      ],
      "type": "VEC3"
    },
    {
      "bufferView": 1,
      "byteOffset": 135968,
      "componentType": 5126,
      "count": 2768,
      "max": [
        5.036826133728027,
        4.180434226989746
      ],
      "min": [
        -0.7371963858604431,
        -0.5000907182693481
      ],
      "type": "VEC2"
    },
    {
      "bufferView": 0,
      "byteOffset": 117032,
      "componentType": 5125,
      "count": 7110,
      "type": "SCALAR"
    },
    {
      "bufferView": 2,
      "byteOffset": 493296,
      "componentType": 5126,
      "count": 9448,
      "max": [
        156.90362548828125,
        29.56524658203125,
        60.15453338623047
      ],
      "min": [
        152.20623779296875,
        24.621902465820313,
        57.058780670166016
      ],
      "type": "VEC3"
    },
    {
      "bufferView": 2,
      "byteOffset": 606672,
      "componentType": 5126,
      "count": 9448,
      "max": [
        0.999167263507843,
        0.9993689060211182,
        0.9986295104026794
      ],
      "min": [
        -0.999167263507843,
        -0.9993689060211182,
        -0.9986295104026794
      ],
      "type": "VEC3"
    },
    {
      "bufferView": 1,
      "byteOffset": 158112,
      "componentType": 5126,
      "count": 9448,
      "max": [
        0.03601719066500664,
        0.028061309829354286
      ],
      "min": [
        -0.03174300864338875,
        -0.021867219358682632
      ],
      "type": "VEC2"
    },
    {
      "bufferView": 0,
      "byteOffset": 145472,
      "componentType": 5125,
      "count": 14244,
      "type": "SCALAR"
    },
    {
      "bufferView": 2,
      "byteOffset": 720048,
      "componentType": 5126,
      "count": 96,
      "max": [
        156.06858825683594,
        28.48053550720215,
        60.05573654174805
      ],
      "min": [
        153.04127502441406,
        25.706613540649414,
        57.15757751464844
      ],
      "type": "VEC3"
    },
    {
      "bufferView": 2,
      "byteOffset": 721200,
      "componentType": 5126,
      "count": 96,
      "max": [
        0.7790752053260803,
        0.6274511218070984,
        0.9986280202865601
      ],
      "min": [
        -0.7790752053260803,
        -0.6274511218070984,
        -0.9986280202865601
      ],
      "type": "VEC3"
    },
    {
      "bufferView": 0,
      "byteOffset": 202448,
      "componentType": 5125,
      "count": 288,
      "type": "SCALAR"
    },
    {
      "bufferView": 2,
      "byteOffset": 722352,
      "componentType": 5126,
      "count": 151,
      "max": [
        237.2548065185547,
        78.5091781616211,
        57.99924850463867
      ],
      "min": [
        8.342267990112305,
        10.702930450439453,
        0.0
      ],
      "type": "VEC3"
    },
    {
      "bufferView": 0,
      "byteOffset": 203600,
      "componentType": 5125,
      "count": 472,
      "type": "SCALAR"
    }
  ],
  "asset": {
    "extras": {
      "author": "clarkelsmith (https://sketchfab.com/clarkelsmith)",
      "license": "CC-BY-4.0 (http://creativecommons.org/licenses/by/4.0/)",
      "source": "https://sketchfab.com/3d-models/courtroom-judge-desk-ebbe8da43d8e44b8bade2f73b1dda677",
      "title": "Courtroom Judge Desk"
    },
    "generator": "Sketchfab-15.30.0",
    "version": "2.0"
  },
  "bufferViews": [
    {
      "buffer": 0,
      "byteLength": 205488,
      "name": "floatBufferViews",
      "target": 34963
    },
    {
      "buffer": 0,
      "byteLength": 233696,
      "byteOffset": 205488,
      "byteStride": 8,
      "name": "floatBufferViews",
      "target": 34962
    },
    {
      "buffer": 0,
      "byteLength": 724164,
      "byteOffset": 439184,
      "byteStride": 12,
      "name": "floatBufferViews",
      "target": 34962
    }
  ],
  "buffers": [
    {
      "byteLength": 1163348,
      "uri": "scene.bin"
    }
  ],
  "extensionsUsed": [
    "KHR_materials_specular"
  ],
  "images": [
    {
      "uri": "textures/Wood-floor-dark_7_baseColor.jpeg"
    },
    {
      "uri": "textures/Wood-cherry_2_baseColor.jpeg"
    },
    {
      "uri": "textures/DSC00623_0_baseColor.jpeg"
    },
    {
      "uri": "textures/DSC00623_0_specularf0.png"
    },
    {
      "uri": "textures/DSC00623_baseColor.jpeg"
    }
  ],
  "materials": [
    {
      "name": "Wood-floor-dark_7",
      "pbrMetallicRoughness": {
        "baseColorTexture": {
          "index": 0
        },
        "metallicFactor": 0.0,
        "roughnessFactor": 0.6
      }
    },
    {
      "name": "edge_color170131110255",
      "pbrMetallicRoughness": {
        "metallicFactor": 0.0,
        "roughnessFactor": 0.6
      }
    },
    {
      "name": "Wood-cherry_2",
      "pbrMetallicRoughness": {
        "baseColorTexture": {
          "index": 1
        },
        "metallicFactor": 0.0,
        "roughnessFactor": 0.6
      }
    },
    {
      "name": "edge_color1016315255",
      "pbrMetallicRoughness": {
        "metallicFactor": 0.0,
        "roughnessFactor": 0.6
      }
    },
    {
      "name": "edge_color000255",
      "pbrMetallicRoughness": {
        "metallicFactor": 0.0,
        "roughnessFactor": 0.6
      }
    },
    {
      "name": "material",
      "pbrMetallicRoughness": {
        "baseColorFactor": [
          0.635294,
          0.717647,
          0.776471,
          1.0
        ],
        "metallicFactor": 0.0,
        "roughnessFactor": 0.6
      }
    },
    {
      "extensions": {
        "KHR_materials_specular": {
          "specularColorFactor": [
            1.0,
            1.0,
            1.0
          ],
          "specularFactor": 1.0,
          "specularTexture": {
            "index": 3
          }
        }
      },
      "name": "DSC00623_0",
      "pbrMetallicRoughness": {
        "baseColorTexture": {
          "index": 2
        },
        "metallicFactor": 0.0,
        "roughnessFactor": 0.6
      }
    },
    {
      "name": "DSC00623",
      "pbrMetallicRoughness": {
        "baseColorTexture": {
          "index": 4
        },
        "metallicFactor": 0.0,
        "roughnessFactor": 0.6
      }
    },
    {
      "name": "0044_DarkGoldenrod",
      "pbrMetallicRoughness": {
        "baseColorFactor": [
          0.721569,
          0.52549,
          0.0431373,
          1.0
        ],
        "metallicFactor": 0.0,
        "roughnessFactor": 0.6
      }
    }
  ],
  "meshes": [
    {
      "name": "Material2",
      "primitives": [
        {
          "attributes": {
            "NORMAL": 1,
            "POSITION": 0,
            "TEXCOORD_0": 2
          },
          "indices": 3,
          "material": 0,
          "mode": 4
        }
      ]
    },
    {
      "name": "Material3",
      "primitives": [
        {
          "attributes": {
            "NORMAL": 5,
            "POSITION": 4,
            "TEXCOORD_0": 6
          },
          "indices": 7,
          "material": 2,
          "mode": 4
        }
      ]
    },
    {
      "name": "Material4",
      "primitives": [
        {
          "attributes": {
            "POSITION": 8
          },
          "indices": 9,
          "material": 3,
          "mode": 1
        }
      ]
    },
    {
      "name": "Material5",
      "primitives": [
        {
          "attributes": {
            "POSITION": 10
          },
          "indices": 11,
          "material": 4,
          "mode": 1
        }
      ]
    },
    {
      "name": "Material3",
      "primitives": [
        {
          "attributes": {
            "NORMAL": 13,
            "POSITION": 12
          },
          "indices": 14,
          "material": 5,
          "mode": 4
        }
      ]
    },
    {
      "name": "Material3",
      "primitives": [
        {
          "attributes": {
            "NORMAL": 16,
            "POSITION": 15,
            "TEXCOORD_0": 17
          },
          "indices": 18,
          "material": 6,
          "mode": 4
        }
      ]
    },
    {
      "name": "Material2",
      "primitives": [
        {
          "attributes": {
            "NORMAL": 20,
            "POSITION": 19,
            "TEXCOORD_0": 21
          },
          "indices": 22,
          "material": 7,
          "mode": 4
        }
      ]
    },
    {
      "name": "Material3",
      "primitives": [
        {
          "attributes": {
            "NORMAL": 24,
            "POSITION": 23
          },
          "indices": 25,
          "material": 8,
          "mode": 4
        }
      ]
    },
    {
      "name": "Material2",
      "primitives": [
        {
          "attributes": {
            "POSITION": 26
          },
          "indices": 27,
          "material": 1,
          "mode": 1
        }
      ]
    }
  ],
  "nodes": [
    {
      "children": [
        1
      ],
      "matrix": [
        1.0,
        0.0,
        0.0,
        0.0,
        0.0,
        2.220446049250313e-16,
        -1.0,
        0.0,
        0.0,
        1.0,
        2.220446049250313e-16,
        0.0,
        0.0,
        0.0,
        0.0,
        1.0
      ],
      "name": "Sketchfab_model"
    },
    {
      "children": [
        2,
        3,
        4,
        5,
        6,
        7,
        8,
        9,
        10,
        11
      ],
      "name": "Collada visual scene group"
    },
    {
      "mesh": 0,
      "name": "Material2"
    },
    {
      "mesh": 1,
      "name": "Material3"
    },
    {
      "mesh": 2,
      "name": "Material4"
    },
    {
      "mesh": 3,
      "name": "Material5"
    },
    {
      "mesh": 4,
      "name": "Material3"
    },
    {
      "mesh": 5,
      "name": "Material3"
    },
    {
      "mesh": 6,
      "name": "Material2"
    },
    {
      "mesh": 7,
      "name": "Material3"
    },
    {
      "mesh": 8,
      "name": "Material2"
    },
    {
      "children": [
        12
      ],
      "name": "SketchUp"
    },
    {
      "children": [
        13
      ],
      "matrix": [
        0.9854386,
        0.1700312,
        -4.163336e-17,
        0.0,
        -0.09672148,
        0.5605622,
        0.8224445,
        0.0,
        0.1398413,
        -0.8104686,
        0.5688453,
        0.0,
        194.8363,
        -291.559,
        230.7222,
        1.0
      ],
      "name": "skp_camera_Last_Saved_SketchUp_View"
    },
    {
      "name": "ID1"
    }
  ],
  "samplers": [
    {
      "magFilter": 9729,
      "minFilter": 9987,
      "wrapS": 10497,
      "wrapT": 10497
    }
  ],
  "scene": 0,
  "scenes": [
    {
      "name": "Sketchfab_Scene",
      "nodes": [
        0
      ]
    }
  ],
  "textures": [
    {
      "sampler": 0,
      "source": 0
    },
    {
      "sampler": 0,
      "source": 1
    },
    {
      "sampler": 0,
      "source": 2
    },
    {
      "sampler": 0,
      "source": 3
    },
    {
      "sampler": 0,
      "source": 4
    }
  ]
}
