{
  "accessors": [
    {
      "bufferView": 2,
      "componentType": 5126,
      "count": 4922,
      "max": [
        5.941274642944336,
        6.010922908782959,
        28.670400619506836
      ],
      "min": [
        -5.941274642944336,
        -5.8716278076171875,
        -1.4935251474380493
      ],
      "type": "VEC3"
    },
    {
      "bufferView": 2,
      "byteOffset": 59064,
      "componentType": 5126,
      "count": 4922,
      "max": [
        1.0,
        1.0,
        1.0
      ],
      "min": [
        -1.0,
        -1.0,
        -0.9942492842674255
      ],
      "type": "VEC3"
    },
    {
      "bufferView": 1,
      "componentType": 5126,
      "count": 4922,
      "max": [
        0.9935777187347412,
        0.999755859375
      ],
      "min": [
        0.00024414091603830457,
        0.000244140625
      ],
      "type": "VEC2"
    },
    {
      "bufferView": 1,
      "byteOffset": 39376,
      "componentType": 5126,
      "count": 4922,
      "max": [
        0.9935777187347412,
        0.999755859375
      ],
      "min": [
        0.00024414091603830457,
        0.000244140625
      ],
      "type": "VEC2"
    },
    {
      "bufferView": 1,
      "byteOffset": 78752,
      "componentType": 5126,
      "count": 4922,
      "max": [
        0.9935777187347412,
        0.999755859375
      ],
      "min": [
        0.00024414091603830457,
        0.000244140625
      ],
      "type": "VEC2"
    },
    {
      "bufferView": 0,
      "componentType": 5125,
      "count": 23970,
      "type": "SCALAR"
    },
    {
      "bufferView": 2,
      "byteOffset": 118128,
      "componentType": 5126,
      "count": 840,
      "max": [
        14.7703218460083,
        0.8103637099266052,
        24.357500076293945
      ],
      "min": [
        -14.770319938659668,
        -0.8103631138801575,
        20.411754608154297
      ],
      "type": "VEC3"
    },
    {
      "bufferView": 2,
      "byteOffset": 128208,
      "componentType": 5126,
      "count": 840,
      "max": [
        0.9919756650924683,
        1.0,
        0.9998947381973267
      ],
      "min": [
        -0.9919754266738892,
        -1.0,
        -0.9998947381973267
      ],
      "type": "VEC3"
    },
    {
      "bufferView": 1,
      "byteOffset": 118128,
      "componentType": 5126,
      "count": 840,
      "max": [
        0.8538653254508972,
        0.966613233089447
      ],
      "min": [
        0.09323448687791824,
        0.00024414900690317154
      ],
      "type": "VEC2"
    },
    {
      "bufferView": 1,
      "byteOffset": 124848,
      "componentType": 5126,
      "count": 840,
      "max": [
        0.8538653254508972,
        0.966613233089447
      ],
      "min": [
        0.09323448687791824,
        0.00024414900690317154
      ],
      "type": "VEC2"
    },
    {
      "bufferView": 1,
      "byteOffset": 131568,
      "componentType": 5126,
      "count": 840,
      "max": [
        0.8538653254508972,
        0.966613233089447
      ],
      "min": [
        0.09323448687791824,
        0.00024414900690317154
      ],
      "type": "VEC2"
    },
    {
      "bufferView": 0,
      "byteOffset": 95880,
      "componentType": 5125,
      "count": 3528,
      "type": "SCALAR"
    },
    {
      "bufferView": 2,
      "byteOffset": 138288,
      "componentType": 5126,
      "count": 39382,
      "max": [
        20.82900619506836,
        5.078305721282959,
        20.187639236450195
      ],
      "min": [
        -20.82900619506836,
        -5.078300952911377,
        7.437822341918945
      ],
      "type": "VEC3"
    },
    {
      "bufferView": 2,
      "byteOffset": 610872,
      "componentType": 5126,
      "count": 39382,
      "max": [
        0.9999580979347229,
        1.0,
        0.9978925585746765
      ],
      "min": [
        -0.9999580979347229,
        -1.0,
        -0.9978922605514526
      ],
      "type": "VEC3"
    },
    {
      "bufferView": 1,
      "byteOffset": 138288,
      "componentType": 5126,
      "count": 39382,
      "max": [
        0.6242257952690125,
        0.9997366070747375
      ],
      "min": [
        0.000244140625,
        0.00024415008374489844
      ],
      "type": "VEC2"
    },
    {
      "bufferView": 1,
      "byteOffset": 453344,
      "componentType": 5126,
      "count": 39382,
      "max": [
        0.6242257952690125,
        0.9997366070747375
      ],
      "min": [
        0.000244140625,
        0.00024415008374489844
      ],
      "type": "VEC2"
    },
    {
      "bufferView": 1,
      "byteOffset": 768400,
      "componentType": 5126,
      "count": 39382,
      "max": [
        0.6242257952690125,
        0.9997366070747375
      ],
      "min": [
        0.000244140625,
        0.00024415008374489844
      ],
      "type": "VEC2"
    },
    {
      "bufferView": 0,
      "byteOffset": 109992,
      "componentType": 5125,
      "count": 130368,
      "type": "SCALAR"
    },
    {
      "bufferView": 2,
      "byteOffset": 1083456,
      "componentType": 5126,
      "count": 290,
      "max": [
        15.082399368286133,
        1.779146671295166,
        23.116107940673828
      ],
      "min": [
        -15.08240032196045,
        -1.7791459560394287,
        19.557817459106445
      ],
      "type": "VEC3"
    },
    {
      "bufferView": 2,
      "byteOffset": 1086936,
      "componentType": 5126,
      "count": 290,
      "max": [
        0.9987989664077759,
        1.0,
        1.0
      ],
      "min": [
        -0.9987989664077759,
        -1.0,
        -1.0
      ],
      "type": "VEC3"
    },
    {
      "bufferView": 1,
      "byteOffset": 1083456,
      "componentType": 5126,
      "count": 290,
      "max": [
        0.736621081829071,
        0.9917151927947998
      ],
      "min": [
        0.23032648861408234,
        0.8076584935188293
      ],
      "type": "VEC2"
    },
    {
      "bufferView": 1,
      "byteOffset": 1085776,
      "componentType": 5126,
      "count": 290,
      "max": [
        0.736621081829071,
        0.9917151927947998
      ],
      "min": [
        0.23032648861408234,
        0.8076584935188293
      ],
      "type": "VEC2"
    },
    {
      "bufferView": 1,
      "byteOffset": 1088096,
      "componentType": 5126,
      "count": 290,
      "max": [
        0.736621081829071,
        0.9917151927947998
      ],
      "min": [
        0.23032648861408234,
        0.8076584935188293
      ],
      "type": "VEC2"
    },
    {
      "bufferView": 0,
      "byteOffset": 631464,
      "componentType": 5125,
      "count": 1344,
      "type": "SCALAR"
    },
    {
      "bufferView": 2,
      "byteOffset": 1090416,
      "componentType": 5126,
      "count": 5272,
      "max": [
        20.657100677490234,
        5.711795806884766,
        7.995962142944336
      ],
      "min": [
        -20.6571044921875,
        -5.711799621582031,
        6.896212100982666
      ],
      "type": "VEC3"
    },
    {
      "bufferView": 2,
      "byteOffset": 1153680,
      "componentType": 5126,
      "count": 5272,
      "max": [
        0.9943016171455383,
        0.994299590587616,
        1.0
      ],
      "min": [
        -0.9943033456802368,
        -0.9943023324012756,
        -1.0
      ],
      "type": "VEC3"
    },
    {
      "bufferView": 1,
      "byteOffset": 1090416,
      "componentType": 5126,
      "count": 5272,
      "max": [
        0.8496492505073547,
        0.8450780510902405
      ],
      "min": [
        0.31035512685775757,
        0.000244149036007002
      ],
      "type": "VEC2"
    },
    {
      "bufferView": 1,
      "byteOffset": 1132592,
      "componentType": 5126,
      "count": 5272,
      "max": [
        0.8496492505073547,
        0.8450780510902405
      ],
      "min": [
        0.31035512685775757,
        0.000244149036007002
      ],
      "type": "VEC2"
    },
    {
      "bufferView": 1,
      "byteOffset": 1174768,
      "componentType": 5126,
      "count": 5272,
      "max": [
        0.8496492505073547,
        0.8450780510902405
      ],
      "min": [
        0.31035512685775757,
        0.000244149036007002
      ],
      "type": "VEC2"
    },
    {
      "bufferView": 0,
      "byteOffset": 636840,
      "componentType": 5125,
      "count": 29880,
      "type": "SCALAR"
    },
    {
      "bufferView": 2,
      "byteOffset": 1216944,
      "componentType": 5126,
      "count": 792,
      "max": [
        16.33975601196289,
        1.050265908241272,
        24.179044723510742
      ],
      "min": [
        -16.33975601196289,
        -1.0502643585205078,
        21.3901424407959
      ],
      "type": "VEC3"
    },
    {
      "bufferView": 2,
      "byteOffset": 1226448,
      "componentType": 5126,
      "count": 792,
      "max": [
        1.0,
        1.0,
        1.0
      ],
      "min": [
        -1.0,
        -1.0,
        -1.0
      ],
      "type": "VEC3"
    },
    {
      "bufferView": 1,
      "byteOffset": 1216944,
      "componentType": 5126,
      "count": 792,
      "max": [
        0.4723565876483917,
        0.9953395128250122
      ],
      "min": [
        0.0321207195520401,
        0.03894416242837906
      ],
      "type": "VEC2"
    },
    {
      "bufferView": 1,
      "byteOffset": 1223280,
      "componentType": 5126,
      "count": 792,
      "max": [
        0.4723565876483917,
        0.9953395128250122
      ],
      "min": [
        0.0321207195520401,
        0.03894416242837906
      ],
      "type": "VEC2"
    },
    {
      "bufferView": 1,
      "byteOffset": 1229616,
      "componentType": 5126,
      "count": 792,
      "max": [
        0.4723565876483917,
        0.9953395128250122
      ],
      "min": [
        0.0321207195520401,
        0.03894416242837906
      ],
      "type": "VEC2"
    },
    {
      "bufferView": 0,
      "byteOffset": 756360,
      "componentType": 5125,
      "count": 3456,
      "type": "SCALAR"
    }
  ],
  "asset": {
    "extras": {
      "author": "Misam Ali Rizvi (https://sketchfab.com/MisamAliRizvi)",
      "license": "CC-BY-4.0 (http://creativecommons.org/licenses/by/4.0/)",
      "source": "https://sketchfab.com/3d-models/justice-measure-01-77b28d36ea3c4cb69727d54bd5f81a21",
      "title": "Justice Measure 01"
    },
    "generator": "Sketchfab-15.12.0",
    "version": "2.0"
  },
  "bufferViews": [
    {
      "buffer": 0,
      "byteLength": 770184,
      "name": "floatBufferViews",
      "target": 34963
    },
    {
      "buffer": 0,
      "byteLength": 1235952,
      "byteOffset": 770184,
      "byteStride": 8,
      "name": "floatBufferViews",
      "target": 34962
    },
    {
      "buffer": 0,
      "byteLength": 1235952,
      "byteOffset": 2006136,
      "byteStride": 12,
      "name": "floatBufferViews",
      "target": 34962
    }
  ],
  "buffers": [
    {
      "byteLength": 3242088,
      "uri": "scene.bin"
    }
  ],
  "extensionsUsed": [
    "KHR_materials_specular"
  ],
  "images": [
    {
      "uri": "textures/Material_26_baseColor.png"
    },
    {
      "uri": "textures/Material_27_baseColor.png"
    },
    {
      "uri": "textures/Material_78_baseColor.png"
    },
    {
      "uri": "textures/Material_29_baseColor.png"
    },
    {
      "uri": "textures/Material_30_baseColor.png"
    },
    {
      "uri": "textures/Material_28_baseColor.png"
    }
  ],
  "materials": [
    {
      "doubleSided": true,
      "extensions": {
        "KHR_materials_specular": {
          "specularColorFactor": [
            1.0,
            1.0,
            1.0
          ],
          "specularFactor": 1.0
        }
      },
      "name": "Material_26",
      "pbrMetallicRoughness": {
        "baseColorTexture": {
          "index": 0
        },
        "roughnessFactor": 0.28747818737877656
      }
    },
    {
      "doubleSided": true,
      "name": "Material_27",
      "pbrMetallicRoughness": {
        "baseColorTexture": {
          "index": 1
        },
        "roughnessFactor": 0.5118760982312776
      }
    },
    {
      "doubleSided": true,
      "name": "Material_78",
      "pbrMetallicRoughness": {
        "baseColorTexture": {
          "index": 2
        },
        "roughnessFactor": 0.4145933276179705
      }
    },
    {
      "doubleSided": true,
      "name": "Material_29",
      "pbrMetallicRoughness": {
        "baseColorTexture": {
          "index": 3
        },
        "metallicFactor": 0.0,
        "roughnessFactor": 0.8929713596497552
      }
    },
    {
      "doubleSided": true,
      "name": "Material_30",
      "pbrMetallicRoughness": {
        "baseColorTexture": {
          "index": 4
        },
        "roughnessFactor": 0.2504286522080149
      }
    },
    {
      "doubleSided": true,
      "name": "Material_28",
      "pbrMetallicRoughness": {
        "baseColorTexture": {
          "index": 5
        },
        "roughnessFactor": 0.3173105570046635
      }
    }
  ],
  "meshes": [
    {
      "name": "Justice Measure_01_Material #26_0",
      "primitives": [
        {
          "attributes": {
            "NORMAL": 1,
            "POSITION": 0,
            "TEXCOORD_0": 2,
            "TEXCOORD_1": 3,
            "TEXCOORD_2": 4
          },
          "indices": 5,
          "material": 0,
          "mode": 4
        }
      ]
    },
    {
      "name": "Justice Measure_01_Material #27_0",
      "primitives": [
        {
          "attributes": {
            "NORMAL": 7,
            "POSITION": 6,
            "TEXCOORD_0": 8,
            "TEXCOORD_1": 9,
            "TEXCOORD_2": 10
          },
          "indices": 11,
          "material": 1,
          "mode": 4
        }
      ]
    },
    {
      "name": "Justice Measure_01_Material #78_0",
      "primitives": [
        {
          "attributes": {
            "NORMAL": 13,
            "POSITION": 12,
            "TEXCOORD_0": 14,
            "TEXCOORD_1": 15,
            "TEXCOORD_2": 16
          },
          "indices": 17,
          "material": 2,
          "mode": 4
        }
      ]
    },
    {
      "name": "Justice Measure_01_Material #29_0",
      "primitives": [
        {
          "attributes": {
            "NORMAL": 19,
            "POSITION": 18,
            "TEXCOORD_0": 20,
            "TEXCOORD_1": 21,
            "TEXCOORD_2": 22
          },
          "indices": 23,
          "material": 3,
          "mode": 4
        }
      ]
    },
    {
      "name": "Justice Measure_01_Material #30_0",
      "primitives": [
        {
          "attributes": {
            "NORMAL": 25,
            "POSITION": 24,
            "TEXCOORD_0": 26,
            "TEXCOORD_1": 27,
            "TEXCOORD_2": 28
          },
          "indices": 29,
          "material": 4,
          "mode": 4
        }
      ]
    },
    {
      "name": "Justice Measure_01_Material #28_0",
      "primitives": [
        {
          "attributes": {
            "NORMAL": 31,
            "POSITION": 30,
            "TEXCOORD_0": 32,
            "TEXCOORD_1": 33,
            "TEXCOORD_2": 34
          },
          "indices": 35,
          "material": 5,
          "mode": 4
        }
      ]
    }
  ],
  "nodes": [
    {
      "children": [
        1
      ],
      "matrix": [
        1.0,
        -2.8327693431939995e-16,
        2.8327693431939985e-16,
        0.0,
        -2.832769343193999e-16,
        -2.2204460492503126e-16,
        1.0,
        0.0,
        -2.832769343193999e-16,
        -1.0,
        -2.2204460492503136e-16,
        0.0,
        0.0,
        0.0,
        0.0,
        1.0
      ],
      "name": "Sketchfab_model"
    },
    {
      "children": [
        2
      ],
      "matrix": [
        0.009999999776482582,
        0.0,
        0.0,
        0.0,
        0.0,
        -0.009999999776482582,
        0.0,
        0.0,
        0.0,
        0.0,
        -0.009999999776482582,
        0.0,
        0.0,
        0.0,
        0.0,
        1.0
      ],
      "name": "50676a13e09f4342874f3c3541a3a171.fbx"
    },
    {
      "children": [
        3
      ],
      "name": "RootNode"
    },
    {
      "children": [
        4
      ],
      "name": "Justice Measure_01"
    },
    {
      "children": [
        5,
        6,
        7,
        8,
        9,
        10
      ],
      "matrix": [
        1.0,
        0.0,
        -0.0,
        0.0,
        0.0,
        1.0,
        0.0,
        0.0,
        0.0,
        0.0,
        1.0,
        0.0,
        0.0,
        -0.06964755058288574,
        1.493525505065918,
        1.0
      ],
      "name": "Object_4"
    },
    {
      "mesh": 0,
      "name": "Justice Measure_01_Material #26_0"
    },
    {
      "mesh": 1,
      "name": "Justice Measure_01_Material #27_0"
    },
    {
      "mesh": 2,
      "name": "Justice Measure_01_Material #78_0"
    },
    {
      "mesh": 3,
      "name": "Justice Measure_01_Material #29_0"
    },
    {
      "mesh": 4,
      "name": "Justice Measure_01_Material #30_0"
    },
    {
      "mesh": 5,
      "name": "Justice Measure_01_Material #28_0"
    }
  ],
  "samplers": [
    {
      "magFilter": 9729,
      "minFilter": 9987,
      "wrapS": 10497,
      "wrapT": 10497
    }
  ],
  "scene": 0,
  "scenes": [
    {
      "name": "Sketchfab_Scene",
      "nodes": [
        0
      ]
    }
  ],
  "textures": [
    {
      "sampler": 0,
      "source": 0
    },
    {
      "sampler": 0,
      "source": 1
    },
    {
      "sampler": 0,
      "source": 2
    },
    {
      "sampler": 0,
      "source": 3
    },
    {
      "sampler": 0,
      "source": 4
    },
    {
      "sampler": 0,
      "source": 5
    }
  ]
}
