{
  "accessors": [
    {
      "bufferView": 2,
      "componentType": 5126,
      "count": 5893,
      "max": [
        0.0633149966597557,
        0.025807999074459076,
        0.0027489999774843454
      ],
      "min": [
        -0.06656300276517868,
        -0.02000799961388111,
        -0.2904439866542816
      ],
      "type": "VEC3"
    },
    {
      "bufferView": 2,
      "byteOffset": 70716,
      "componentType": 5126,
      "count": 5893,
      "max": [
        0.9996437430381775,
        0.9999892115592957,
        1.0
      ],
      "min": [
        -0.9999659061431885,
        -0.999993622303009,
        -1.0
      ],
      "type": "VEC3"
    },
    {
      "bufferView": 3,
      "componentType": 5126,
      "count": 5893,
      "max": [
        1.0,
        0.9999420046806335,
        1.0,
        1.0
      ],
      "min": [
        -0.9968979954719543,
        -0.9998948574066162,
        -1.0,
        -1.0
      ],
      "type": "VEC4"
    },
    {
      "bufferView": 1,
      "componentType": 5126,
      "count": 5893,
      "max": [
        0.9980469942092896,
        0.8839399814605713
      ],
      "min": [
        0.0019529999699443579,
        0.0019529999699443579
      ],
      "type": "VEC2"
    },
    {
      "bufferView": 0,
      "componentType": 5125,
      "count": 28986,
      "type": "SCALAR"
    }
  ],
  "asset": {
    "extras": {
      "author": "Sousinho (https://sketchfab.com/sousinho)",
      "license": "CC-BY-4.0 (http://creativecommons.org/licenses/by/4.0/)",
      "source": "https://sketchfab.com/3d-models/blood-bag-30c52cebb12845e482db8bd9d8061e51",
      "title": "Blood bag"
    },
    "generator": "Sketchfab-14.25.0",
    "version": "2.0"
  },
  "bufferViews": [
    {
      "buffer": 0,
      "byteLength": 115944,
      "name": "floatBufferViews",
      "target": 34963
    },
    {
      "buffer": 0,
      "byteLength": 47144,
      "byteOffset": 115944,
      "byteStride": 8,
      "name": "floatBufferViews",
      "target": 34962
    },
    {
      "buffer": 0,
      "byteLength": 141432,
      "byteOffset": 163088,
      "byteStride": 12,
      "name": "floatBufferViews",
      "target": 34962
    },
    {
      "buffer": 0,
      "byteLength": 94288,
      "byteOffset": 304520,
      "byteStride": 16,
      "name": "floatBufferViews",
      "target": 34962
    }
  ],
  "buffers": [
    {
      "byteLength": 398808,
      "uri": "scene.bin"
    }
  ],
  "images": [
    {
      "uri": "textures/T_blood_bag_3_1001_baseColor.png"
    },
    {
      "uri": "textures/T_blood_bag_3_1001_metallicRoughness.png"
    },
    {
      "uri": "textures/T_blood_bag_3_1001_normal.png"
    }
  ],
  "materials": [
    {
      "alphaMode": "BLEND",
      "doubleSided": true,
      "name": "T_blood_bag_3_1001",
      "normalTexture": {
        "index": 2
      },
      "occlusionTexture": {
        "index": 1
      },
      "pbrMetallicRoughness": {
        "baseColorTexture": {
          "index": 0
        },
        "metallicRoughnessTexture": {
          "index": 1
        }
      }
    }
  ],
  "meshes": [
    {
      "name": "defaultMaterial",
      "primitives": [
        {
          "attributes": {
            "NORMAL": 1,
            "POSITION": 0,
            "TANGENT": 2,
            "TEXCOORD_0": 3
          },
          "indices": 4,
          "material": 0,
          "mode": 4
        }
      ]
    }
  ],
  "nodes": [
    {
      "children": [
        1
      ],
      "matrix": [
        1.0,
        0.0,
        0.0,
        0.0,
        0.0,
        2.220446049250313e-16,
        -1.0,
        0.0,
        0.0,
        1.0,
        2.220446049250313e-16,
        0.0,
        0.0,
        0.0,
        0.0,
        1.0
      ],
      "name": "Sketchfab_model"
    },
    {
      "children": [
        2
      ],
      "matrix": [
        1.0,
        0.0,
        0.0,
        0.0,
        0.0,
        -4.371139006309477e-08,
        0.999999999999999,
        0.0,
        0.0,
        -0.999999999999999,
        -4.371139006309477e-08,
        0.0,
        0.0,
        0.0,
        0.0,
        1.0
      ],
      "name": "Collada visual scene group"
    },
    {
      "children": [
        3
      ],
      "matrix": [
        -100.0,
        1.5e-05,
        0.0,
        0.0,
        0.0,
        1.6e-05,
        -100.0,
        0.0,
        -1.5e-05,
        -100.0,
        -1.6e-05,
        0.0,
        -0.224518,
        0.212659,
        0.101382,
        1.0
      ],
      "name": "SM_blood_bag_3"
    },
    {
      "mesh": 0,
      "name": "defaultMaterial"
    }
  ],
  "samplers": [
    {
      "magFilter": 9729,
      "minFilter": 9987,
      "wrapS": 10497,
      "wrapT": 10497
    }
  ],
  "scene": 0,
  "scenes": [
    {
      "name": "Sketchfab_Scene",
      "nodes": [
        0
      ]
    }
  ],
  "textures": [
    {
      "sampler": 0,
      "source": 0
    },
    {
      "sampler": 0,
      "source": 1
    },
    {
      "sampler": 0,
      "source": 2
    }
  ]
}
